# xmcd
#
# Track frame offsets:
#	150
#	17573
#	37553
#	53548
#	72106
#	90661
#	105378
#	116686
#	135925
#	150995
#	166755
#	183553
#	199356
#	217271
#	236549
#
# Disc length: 3393 seconds
#
# Revision: 0
# Processed by: cddbd v1.5.1PL2 Copyright (c) Steve Scherf et al.
# Submitted via: audiograbber 1.83.01
#
DISCID=b60d3f0f
DTITLE=Sound Choice Karaoke - SC8794
DYEAR=2004
DGENRE=Karaoke Country
TTITLE0=Dixie Chicks - Tortured Tangled Hearts
TTITLE1=McGraw, Tim - Red Ragtop
TTITLE2=Adkins, Trace - Chrome
TTITLE3=Hometown News - Wheels
TTITLE4=Allen, Gary - Man To Man
TTITLE5=Willis, Kelly - If I Left You
TTITLE6=Cook, Elizabeth - Stupid Things (Radio)
TTITLE7=Steiner, Tommy Shane and Wilson Sampras, Bridgette - What We're Gonna Do 
TTITLE7=About It
TTITLE8=Singletary, Daryl - I'd Love To Lay You Down
TTITLE9=Wills, Mark - Nineteen (19) Something
TTITLE10=Watson, Dale - Country My A$$
TTITLE11=Worley, Darryl - Family Tree
TTITLE12=Womack, Lee Ann - Forever Everyday
TTITLE13=Twain, Shania - I'm Gonna Getcha Good
TTITLE14=McCoy, Neil - Luckiest Man In The World
EXTD=
EXTT0=
EXTT1=
EXTT2=
EXTT3=
EXTT4=
EXTT5=
EXTT6=
EXTT7=
EXTT8=
EXTT9=
EXTT10=
EXTT11=
EXTT12=
EXTT13=
EXTT14=
PLAYORDER=
